<mxfile host="Electron" modified="2023-06-08T03:18:11.678Z" agent="Mozilla/5.0 (Windows NT 10.0; Win64; x64) AppleWebKit/537.36 (KHTML, like Gecko) draw.io/21.2.8 Chrome/112.0.5615.165 Electron/24.2.0 Safari/537.36" etag="h2_QIQzRoIRZ5l9Djc2i" version="21.2.8" type="device">
  <diagram name="페이지-1" id="bxjBIJbBNhX_5_Wny5_U">
    <mxGraphModel dx="1434" dy="2013" grid="1" gridSize="10" guides="1" tooltips="1" connect="1" arrows="1" fold="1" page="1" pageScale="1" pageWidth="827" pageHeight="1169" math="0" shadow="0">
      <root>
        <mxCell id="0" />
        <mxCell id="1" parent="0" />
        <mxCell id="FxkmAxEzRvK7W1a0_CuK-5" value="일반회원" style="swimlane;whiteSpace=wrap;html=1;" vertex="1" parent="1">
          <mxGeometry x="100" y="-1160" width="280" height="1130" as="geometry">
            <mxRectangle x="480" y="-1110" width="140" height="30" as="alternateBounds" />
          </mxGeometry>
        </mxCell>
        <mxCell id="FxkmAxEzRvK7W1a0_CuK-1" value="" style="ellipse;whiteSpace=wrap;html=1;aspect=fixed;fillColor=#000000;" vertex="1" parent="FxkmAxEzRvK7W1a0_CuK-5">
          <mxGeometry x="130" y="40" width="20" height="20" as="geometry" />
        </mxCell>
        <mxCell id="FxkmAxEzRvK7W1a0_CuK-2" value="회원가입" style="rounded=1;whiteSpace=wrap;html=1;" vertex="1" parent="FxkmAxEzRvK7W1a0_CuK-5">
          <mxGeometry x="100" y="100" width="80" height="40" as="geometry" />
        </mxCell>
        <mxCell id="FxkmAxEzRvK7W1a0_CuK-3" value="" style="endArrow=classic;html=1;rounded=0;exitX=0.5;exitY=1;exitDx=0;exitDy=0;entryX=0.5;entryY=0;entryDx=0;entryDy=0;" edge="1" parent="FxkmAxEzRvK7W1a0_CuK-5" source="FxkmAxEzRvK7W1a0_CuK-1" target="FxkmAxEzRvK7W1a0_CuK-2">
          <mxGeometry width="50" height="50" relative="1" as="geometry">
            <mxPoint x="500" y="180" as="sourcePoint" />
            <mxPoint x="550" y="130" as="targetPoint" />
          </mxGeometry>
        </mxCell>
        <mxCell id="FxkmAxEzRvK7W1a0_CuK-9" value="완료 이메일 수령" style="rounded=1;whiteSpace=wrap;html=1;" vertex="1" parent="FxkmAxEzRvK7W1a0_CuK-5">
          <mxGeometry x="45" y="360" width="80" height="40" as="geometry" />
        </mxCell>
        <mxCell id="FxkmAxEzRvK7W1a0_CuK-10" value="가입 포인트 수령" style="rounded=1;whiteSpace=wrap;html=1;" vertex="1" parent="FxkmAxEzRvK7W1a0_CuK-5">
          <mxGeometry x="155" y="360" width="80" height="40" as="geometry" />
        </mxCell>
        <mxCell id="FxkmAxEzRvK7W1a0_CuK-11" value="" style="endArrow=classic;html=1;rounded=0;" edge="1" parent="FxkmAxEzRvK7W1a0_CuK-5">
          <mxGeometry width="50" height="50" relative="1" as="geometry">
            <mxPoint x="195" y="330" as="sourcePoint" />
            <mxPoint x="195" y="360" as="targetPoint" />
          </mxGeometry>
        </mxCell>
        <mxCell id="FxkmAxEzRvK7W1a0_CuK-14" value="" style="endArrow=none;html=1;rounded=0;strokeWidth=10;" edge="1" parent="FxkmAxEzRvK7W1a0_CuK-5">
          <mxGeometry width="50" height="50" relative="1" as="geometry">
            <mxPoint x="35" y="440" as="sourcePoint" />
            <mxPoint x="245" y="440" as="targetPoint" />
          </mxGeometry>
        </mxCell>
        <mxCell id="FxkmAxEzRvK7W1a0_CuK-7" value="" style="endArrow=none;html=1;rounded=0;strokeWidth=10;" edge="1" parent="FxkmAxEzRvK7W1a0_CuK-5">
          <mxGeometry width="50" height="50" relative="1" as="geometry">
            <mxPoint x="35" y="330" as="sourcePoint" />
            <mxPoint x="245" y="330" as="targetPoint" />
          </mxGeometry>
        </mxCell>
        <mxCell id="FxkmAxEzRvK7W1a0_CuK-8" value="" style="endArrow=classic;html=1;rounded=0;" edge="1" parent="FxkmAxEzRvK7W1a0_CuK-5">
          <mxGeometry width="50" height="50" relative="1" as="geometry">
            <mxPoint x="85" y="330" as="sourcePoint" />
            <mxPoint x="85" y="360" as="targetPoint" />
          </mxGeometry>
        </mxCell>
        <mxCell id="FxkmAxEzRvK7W1a0_CuK-18" value="" style="endArrow=classic;html=1;rounded=0;exitX=0.5;exitY=1;exitDx=0;exitDy=0;" edge="1" parent="FxkmAxEzRvK7W1a0_CuK-5" source="FxkmAxEzRvK7W1a0_CuK-9">
          <mxGeometry width="50" height="50" relative="1" as="geometry">
            <mxPoint x="465" y="320" as="sourcePoint" />
            <mxPoint x="85" y="440" as="targetPoint" />
          </mxGeometry>
        </mxCell>
        <mxCell id="FxkmAxEzRvK7W1a0_CuK-19" value="" style="endArrow=classic;html=1;rounded=0;exitX=0.5;exitY=1;exitDx=0;exitDy=0;" edge="1" parent="FxkmAxEzRvK7W1a0_CuK-5" source="FxkmAxEzRvK7W1a0_CuK-10">
          <mxGeometry width="50" height="50" relative="1" as="geometry">
            <mxPoint x="465" y="320" as="sourcePoint" />
            <mxPoint x="195" y="440" as="targetPoint" />
          </mxGeometry>
        </mxCell>
        <mxCell id="FxkmAxEzRvK7W1a0_CuK-20" value="" style="rhombus;whiteSpace=wrap;html=1;" vertex="1" parent="FxkmAxEzRvK7W1a0_CuK-5">
          <mxGeometry x="130" y="160" width="20" height="20" as="geometry" />
        </mxCell>
        <mxCell id="FxkmAxEzRvK7W1a0_CuK-21" value="일반회원" style="rounded=1;whiteSpace=wrap;html=1;" vertex="1" parent="FxkmAxEzRvK7W1a0_CuK-5">
          <mxGeometry x="45" y="210" width="80" height="40" as="geometry" />
        </mxCell>
        <mxCell id="FxkmAxEzRvK7W1a0_CuK-22" value="뮤지션회원" style="rounded=1;whiteSpace=wrap;html=1;" vertex="1" parent="FxkmAxEzRvK7W1a0_CuK-5">
          <mxGeometry x="155" y="210" width="80" height="40" as="geometry" />
        </mxCell>
        <mxCell id="FxkmAxEzRvK7W1a0_CuK-23" value="" style="endArrow=classic;html=1;rounded=0;exitX=0.5;exitY=1;exitDx=0;exitDy=0;entryX=0.5;entryY=0;entryDx=0;entryDy=0;" edge="1" parent="FxkmAxEzRvK7W1a0_CuK-5" source="FxkmAxEzRvK7W1a0_CuK-2" target="FxkmAxEzRvK7W1a0_CuK-20">
          <mxGeometry width="50" height="50" relative="1" as="geometry">
            <mxPoint x="460" y="160" as="sourcePoint" />
            <mxPoint x="510" y="110" as="targetPoint" />
          </mxGeometry>
        </mxCell>
        <mxCell id="FxkmAxEzRvK7W1a0_CuK-24" value="" style="endArrow=classic;html=1;rounded=0;exitX=0;exitY=1;exitDx=0;exitDy=0;entryX=0.5;entryY=0;entryDx=0;entryDy=0;" edge="1" parent="FxkmAxEzRvK7W1a0_CuK-5" source="FxkmAxEzRvK7W1a0_CuK-20" target="FxkmAxEzRvK7W1a0_CuK-21">
          <mxGeometry width="50" height="50" relative="1" as="geometry">
            <mxPoint x="460" y="160" as="sourcePoint" />
            <mxPoint x="510" y="110" as="targetPoint" />
          </mxGeometry>
        </mxCell>
        <mxCell id="FxkmAxEzRvK7W1a0_CuK-25" value="" style="endArrow=classic;html=1;rounded=0;exitX=1;exitY=1;exitDx=0;exitDy=0;entryX=0.5;entryY=0;entryDx=0;entryDy=0;" edge="1" parent="FxkmAxEzRvK7W1a0_CuK-5" source="FxkmAxEzRvK7W1a0_CuK-20" target="FxkmAxEzRvK7W1a0_CuK-22">
          <mxGeometry width="50" height="50" relative="1" as="geometry">
            <mxPoint x="460" y="160" as="sourcePoint" />
            <mxPoint x="510" y="110" as="targetPoint" />
          </mxGeometry>
        </mxCell>
        <mxCell id="FxkmAxEzRvK7W1a0_CuK-26" value="" style="rhombus;whiteSpace=wrap;html=1;" vertex="1" parent="FxkmAxEzRvK7W1a0_CuK-5">
          <mxGeometry x="130" y="280" width="20" height="20" as="geometry" />
        </mxCell>
        <mxCell id="FxkmAxEzRvK7W1a0_CuK-27" value="" style="endArrow=classic;html=1;rounded=0;exitX=0.5;exitY=1;exitDx=0;exitDy=0;entryX=0;entryY=0;entryDx=0;entryDy=0;" edge="1" parent="FxkmAxEzRvK7W1a0_CuK-5" source="FxkmAxEzRvK7W1a0_CuK-21" target="FxkmAxEzRvK7W1a0_CuK-26">
          <mxGeometry width="50" height="50" relative="1" as="geometry">
            <mxPoint x="460" y="160" as="sourcePoint" />
            <mxPoint x="510" y="110" as="targetPoint" />
          </mxGeometry>
        </mxCell>
        <mxCell id="FxkmAxEzRvK7W1a0_CuK-28" value="" style="endArrow=classic;html=1;rounded=0;exitX=0.5;exitY=1;exitDx=0;exitDy=0;entryX=1;entryY=0;entryDx=0;entryDy=0;" edge="1" parent="FxkmAxEzRvK7W1a0_CuK-5" source="FxkmAxEzRvK7W1a0_CuK-22" target="FxkmAxEzRvK7W1a0_CuK-26">
          <mxGeometry width="50" height="50" relative="1" as="geometry">
            <mxPoint x="460" y="160" as="sourcePoint" />
            <mxPoint x="510" y="110" as="targetPoint" />
          </mxGeometry>
        </mxCell>
        <mxCell id="FxkmAxEzRvK7W1a0_CuK-30" value="뮤지션검색" style="rounded=1;whiteSpace=wrap;html=1;" vertex="1" parent="FxkmAxEzRvK7W1a0_CuK-5">
          <mxGeometry x="100" y="470" width="80" height="40" as="geometry" />
        </mxCell>
        <mxCell id="FxkmAxEzRvK7W1a0_CuK-32" value="후원하기" style="rounded=1;whiteSpace=wrap;html=1;" vertex="1" parent="FxkmAxEzRvK7W1a0_CuK-5">
          <mxGeometry x="100" y="536" width="80" height="40" as="geometry" />
        </mxCell>
        <mxCell id="FxkmAxEzRvK7W1a0_CuK-35" value="" style="rhombus;whiteSpace=wrap;html=1;" vertex="1" parent="FxkmAxEzRvK7W1a0_CuK-5">
          <mxGeometry x="130" y="600" width="20" height="20" as="geometry" />
        </mxCell>
        <mxCell id="FxkmAxEzRvK7W1a0_CuK-36" value="일반후원" style="rounded=1;whiteSpace=wrap;html=1;" vertex="1" parent="FxkmAxEzRvK7W1a0_CuK-5">
          <mxGeometry x="45" y="650" width="80" height="40" as="geometry" />
        </mxCell>
        <mxCell id="FxkmAxEzRvK7W1a0_CuK-37" value="정기후원" style="rounded=1;whiteSpace=wrap;html=1;" vertex="1" parent="FxkmAxEzRvK7W1a0_CuK-5">
          <mxGeometry x="155" y="650" width="80" height="40" as="geometry" />
        </mxCell>
        <mxCell id="FxkmAxEzRvK7W1a0_CuK-38" value="" style="endArrow=classic;html=1;rounded=0;exitX=0;exitY=1;exitDx=0;exitDy=0;entryX=0.5;entryY=0;entryDx=0;entryDy=0;" edge="1" source="FxkmAxEzRvK7W1a0_CuK-35" target="FxkmAxEzRvK7W1a0_CuK-36" parent="FxkmAxEzRvK7W1a0_CuK-5">
          <mxGeometry width="50" height="50" relative="1" as="geometry">
            <mxPoint x="460" y="600" as="sourcePoint" />
            <mxPoint x="510" y="550" as="targetPoint" />
          </mxGeometry>
        </mxCell>
        <mxCell id="FxkmAxEzRvK7W1a0_CuK-39" value="" style="endArrow=classic;html=1;rounded=0;exitX=1;exitY=1;exitDx=0;exitDy=0;entryX=0.5;entryY=0;entryDx=0;entryDy=0;" edge="1" source="FxkmAxEzRvK7W1a0_CuK-35" target="FxkmAxEzRvK7W1a0_CuK-37" parent="FxkmAxEzRvK7W1a0_CuK-5">
          <mxGeometry width="50" height="50" relative="1" as="geometry">
            <mxPoint x="460" y="600" as="sourcePoint" />
            <mxPoint x="510" y="550" as="targetPoint" />
          </mxGeometry>
        </mxCell>
        <mxCell id="FxkmAxEzRvK7W1a0_CuK-43" value="" style="endArrow=classic;html=1;rounded=0;exitX=0.5;exitY=1;exitDx=0;exitDy=0;entryX=0.5;entryY=0;entryDx=0;entryDy=0;" edge="1" parent="FxkmAxEzRvK7W1a0_CuK-5" source="FxkmAxEzRvK7W1a0_CuK-32" target="FxkmAxEzRvK7W1a0_CuK-35">
          <mxGeometry width="50" height="50" relative="1" as="geometry">
            <mxPoint x="460" y="430" as="sourcePoint" />
            <mxPoint x="510" y="380" as="targetPoint" />
          </mxGeometry>
        </mxCell>
        <mxCell id="FxkmAxEzRvK7W1a0_CuK-49" value="결제정보입력" style="rounded=1;whiteSpace=wrap;html=1;" vertex="1" parent="FxkmAxEzRvK7W1a0_CuK-5">
          <mxGeometry x="155" y="840" width="80" height="40" as="geometry" />
        </mxCell>
        <mxCell id="FxkmAxEzRvK7W1a0_CuK-54" value="결제진행" style="rounded=1;whiteSpace=wrap;html=1;" vertex="1" parent="FxkmAxEzRvK7W1a0_CuK-5">
          <mxGeometry x="155" y="900" width="80" height="40" as="geometry" />
        </mxCell>
        <mxCell id="FxkmAxEzRvK7W1a0_CuK-70" value="후원완료" style="rounded=1;whiteSpace=wrap;html=1;" vertex="1" parent="FxkmAxEzRvK7W1a0_CuK-5">
          <mxGeometry x="45" y="780" width="80" height="40" as="geometry" />
        </mxCell>
        <mxCell id="FxkmAxEzRvK7W1a0_CuK-71" value="포인트충전" style="rounded=1;whiteSpace=wrap;html=1;" vertex="1" parent="FxkmAxEzRvK7W1a0_CuK-5">
          <mxGeometry x="155" y="780" width="80" height="40" as="geometry" />
        </mxCell>
        <mxCell id="FxkmAxEzRvK7W1a0_CuK-75" value="" style="endArrow=classic;html=1;rounded=0;exitX=0.5;exitY=1;exitDx=0;exitDy=0;entryX=0.5;entryY=0;entryDx=0;entryDy=0;" edge="1" parent="FxkmAxEzRvK7W1a0_CuK-5" source="FxkmAxEzRvK7W1a0_CuK-71" target="FxkmAxEzRvK7W1a0_CuK-49">
          <mxGeometry width="50" height="50" relative="1" as="geometry">
            <mxPoint x="460" y="610" as="sourcePoint" />
            <mxPoint x="510" y="560" as="targetPoint" />
          </mxGeometry>
        </mxCell>
        <mxCell id="FxkmAxEzRvK7W1a0_CuK-76" value="" style="endArrow=classic;html=1;rounded=0;exitX=0.5;exitY=1;exitDx=0;exitDy=0;entryX=0.5;entryY=0;entryDx=0;entryDy=0;" edge="1" parent="FxkmAxEzRvK7W1a0_CuK-5" source="FxkmAxEzRvK7W1a0_CuK-49" target="FxkmAxEzRvK7W1a0_CuK-54">
          <mxGeometry width="50" height="50" relative="1" as="geometry">
            <mxPoint x="460" y="610" as="sourcePoint" />
            <mxPoint x="510" y="560" as="targetPoint" />
          </mxGeometry>
        </mxCell>
        <mxCell id="FxkmAxEzRvK7W1a0_CuK-78" value="후원완료" style="rounded=1;whiteSpace=wrap;html=1;" vertex="1" parent="FxkmAxEzRvK7W1a0_CuK-5">
          <mxGeometry x="155" y="1000" width="80" height="40" as="geometry" />
        </mxCell>
        <mxCell id="FxkmAxEzRvK7W1a0_CuK-79" value="결제완료" style="endArrow=classic;html=1;rounded=0;exitX=0.5;exitY=1;exitDx=0;exitDy=0;" edge="1" parent="FxkmAxEzRvK7W1a0_CuK-5" source="FxkmAxEzRvK7W1a0_CuK-54" target="FxkmAxEzRvK7W1a0_CuK-78">
          <mxGeometry width="50" height="50" relative="1" as="geometry">
            <mxPoint x="460" y="1010" as="sourcePoint" />
            <mxPoint x="510" y="960" as="targetPoint" />
          </mxGeometry>
        </mxCell>
        <mxCell id="FxkmAxEzRvK7W1a0_CuK-84" value="" style="ellipse;whiteSpace=wrap;html=1;aspect=fixed;" vertex="1" parent="FxkmAxEzRvK7W1a0_CuK-5">
          <mxGeometry x="185" y="1065" width="20" height="20" as="geometry" />
        </mxCell>
        <mxCell id="FxkmAxEzRvK7W1a0_CuK-85" value="" style="ellipse;whiteSpace=wrap;html=1;aspect=fixed;fillColor=#000000;" vertex="1" parent="FxkmAxEzRvK7W1a0_CuK-5">
          <mxGeometry x="190" y="1070" width="10" height="10" as="geometry" />
        </mxCell>
        <mxCell id="FxkmAxEzRvK7W1a0_CuK-87" value="" style="endArrow=classic;html=1;rounded=0;exitX=0.5;exitY=1;exitDx=0;exitDy=0;entryX=0.5;entryY=0;entryDx=0;entryDy=0;" edge="1" parent="FxkmAxEzRvK7W1a0_CuK-5" source="FxkmAxEzRvK7W1a0_CuK-78" target="FxkmAxEzRvK7W1a0_CuK-84">
          <mxGeometry width="50" height="50" relative="1" as="geometry">
            <mxPoint x="460" y="810" as="sourcePoint" />
            <mxPoint x="510" y="760" as="targetPoint" />
          </mxGeometry>
        </mxCell>
        <mxCell id="FxkmAxEzRvK7W1a0_CuK-6" value="관리자" style="swimlane;whiteSpace=wrap;html=1;" vertex="1" parent="1">
          <mxGeometry x="380" y="-1160" width="300" height="1130" as="geometry" />
        </mxCell>
        <mxCell id="FxkmAxEzRvK7W1a0_CuK-52" value="오류 안내 메일 발송" style="rounded=1;whiteSpace=wrap;html=1;" vertex="1" parent="FxkmAxEzRvK7W1a0_CuK-6">
          <mxGeometry x="90" y="900" width="140" height="40" as="geometry" />
        </mxCell>
        <mxCell id="FxkmAxEzRvK7W1a0_CuK-61" value="" style="endArrow=classic;html=1;rounded=0;exitX=0.5;exitY=1;exitDx=0;exitDy=0;entryX=0.5;entryY=0;entryDx=0;entryDy=0;" edge="1" parent="FxkmAxEzRvK7W1a0_CuK-6" source="FxkmAxEzRvK7W1a0_CuK-52" target="FxkmAxEzRvK7W1a0_CuK-58">
          <mxGeometry width="50" height="50" relative="1" as="geometry">
            <mxPoint x="180" y="810" as="sourcePoint" />
            <mxPoint x="230" y="760" as="targetPoint" />
          </mxGeometry>
        </mxCell>
        <mxCell id="FxkmAxEzRvK7W1a0_CuK-58" value="" style="ellipse;whiteSpace=wrap;html=1;aspect=fixed;" vertex="1" parent="FxkmAxEzRvK7W1a0_CuK-6">
          <mxGeometry x="150" y="970" width="20" height="20" as="geometry" />
        </mxCell>
        <mxCell id="FxkmAxEzRvK7W1a0_CuK-57" value="" style="ellipse;whiteSpace=wrap;html=1;aspect=fixed;fillColor=#000000;" vertex="1" parent="FxkmAxEzRvK7W1a0_CuK-6">
          <mxGeometry x="155" y="975" width="10" height="10" as="geometry" />
        </mxCell>
        <mxCell id="FxkmAxEzRvK7W1a0_CuK-80" value="완료 이메일 발송" style="rounded=1;whiteSpace=wrap;html=1;" vertex="1" parent="FxkmAxEzRvK7W1a0_CuK-6">
          <mxGeometry x="55" y="360" width="80" height="40" as="geometry" />
        </mxCell>
        <mxCell id="FxkmAxEzRvK7W1a0_CuK-81" value="가입 포인트 지급" style="rounded=1;whiteSpace=wrap;html=1;" vertex="1" parent="FxkmAxEzRvK7W1a0_CuK-6">
          <mxGeometry x="165" y="360" width="80" height="40" as="geometry" />
        </mxCell>
        <mxCell id="FxkmAxEzRvK7W1a0_CuK-83" value="" style="endArrow=none;html=1;rounded=0;exitX=1;exitY=0.5;exitDx=0;exitDy=0;entryX=0;entryY=0.5;entryDx=0;entryDy=0;" edge="1" parent="FxkmAxEzRvK7W1a0_CuK-6" source="FxkmAxEzRvK7W1a0_CuK-80" target="FxkmAxEzRvK7W1a0_CuK-81">
          <mxGeometry width="50" height="50" relative="1" as="geometry">
            <mxPoint x="180" y="610" as="sourcePoint" />
            <mxPoint x="230" y="560" as="targetPoint" />
          </mxGeometry>
        </mxCell>
        <mxCell id="FxkmAxEzRvK7W1a0_CuK-29" value="" style="endArrow=classic;html=1;rounded=0;exitX=0.5;exitY=1;exitDx=0;exitDy=0;" edge="1" parent="1" source="FxkmAxEzRvK7W1a0_CuK-26">
          <mxGeometry width="50" height="50" relative="1" as="geometry">
            <mxPoint x="560" y="-1000" as="sourcePoint" />
            <mxPoint x="240" y="-830" as="targetPoint" />
          </mxGeometry>
        </mxCell>
        <mxCell id="FxkmAxEzRvK7W1a0_CuK-31" value="" style="endArrow=classic;html=1;rounded=0;entryX=0.5;entryY=0;entryDx=0;entryDy=0;" edge="1" parent="1" target="FxkmAxEzRvK7W1a0_CuK-30">
          <mxGeometry width="50" height="50" relative="1" as="geometry">
            <mxPoint x="240" y="-720" as="sourcePoint" />
            <mxPoint x="610" y="-850" as="targetPoint" />
          </mxGeometry>
        </mxCell>
        <mxCell id="FxkmAxEzRvK7W1a0_CuK-66" value="" style="rhombus;whiteSpace=wrap;html=1;" vertex="1" parent="1">
          <mxGeometry x="229" y="-440" width="20" height="20" as="geometry" />
        </mxCell>
        <mxCell id="FxkmAxEzRvK7W1a0_CuK-67" value="" style="endArrow=classic;html=1;rounded=0;exitX=0.5;exitY=1;exitDx=0;exitDy=0;entryX=0;entryY=0;entryDx=0;entryDy=0;" edge="1" parent="1" target="FxkmAxEzRvK7W1a0_CuK-66">
          <mxGeometry width="50" height="50" relative="1" as="geometry">
            <mxPoint x="184" y="-470" as="sourcePoint" />
            <mxPoint x="609" y="-610" as="targetPoint" />
          </mxGeometry>
        </mxCell>
        <mxCell id="FxkmAxEzRvK7W1a0_CuK-68" value="" style="endArrow=classic;html=1;rounded=0;exitX=0.5;exitY=1;exitDx=0;exitDy=0;entryX=1;entryY=0;entryDx=0;entryDy=0;" edge="1" parent="1" target="FxkmAxEzRvK7W1a0_CuK-66">
          <mxGeometry width="50" height="50" relative="1" as="geometry">
            <mxPoint x="294" y="-470" as="sourcePoint" />
            <mxPoint x="609" y="-610" as="targetPoint" />
          </mxGeometry>
        </mxCell>
        <mxCell id="FxkmAxEzRvK7W1a0_CuK-72" value="[포인트있음]" style="endArrow=classic;html=1;rounded=0;exitX=0;exitY=1;exitDx=0;exitDy=0;entryX=0.5;entryY=0;entryDx=0;entryDy=0;" edge="1" parent="1" source="FxkmAxEzRvK7W1a0_CuK-66" target="FxkmAxEzRvK7W1a0_CuK-70">
          <mxGeometry width="50" height="50" relative="1" as="geometry">
            <mxPoint x="560" y="-550" as="sourcePoint" />
            <mxPoint x="610" y="-600" as="targetPoint" />
          </mxGeometry>
        </mxCell>
        <mxCell id="FxkmAxEzRvK7W1a0_CuK-73" value="[else]" style="endArrow=classic;html=1;rounded=0;exitX=1;exitY=1;exitDx=0;exitDy=0;entryX=0.5;entryY=0;entryDx=0;entryDy=0;" edge="1" parent="1" source="FxkmAxEzRvK7W1a0_CuK-66" target="FxkmAxEzRvK7W1a0_CuK-71">
          <mxGeometry width="50" height="50" relative="1" as="geometry">
            <mxPoint x="560" y="-550" as="sourcePoint" />
            <mxPoint x="610" y="-600" as="targetPoint" />
          </mxGeometry>
        </mxCell>
        <mxCell id="FxkmAxEzRvK7W1a0_CuK-74" value="결제실패" style="endArrow=classic;html=1;rounded=0;exitX=1;exitY=0.5;exitDx=0;exitDy=0;labelPosition=center;verticalLabelPosition=top;align=center;verticalAlign=bottom;" edge="1" parent="1" source="FxkmAxEzRvK7W1a0_CuK-54" target="FxkmAxEzRvK7W1a0_CuK-52">
          <mxGeometry width="50" height="50" relative="1" as="geometry">
            <mxPoint x="560" y="-550" as="sourcePoint" />
            <mxPoint x="610" y="-600" as="targetPoint" />
          </mxGeometry>
        </mxCell>
        <mxCell id="FxkmAxEzRvK7W1a0_CuK-82" value="가입완료" style="endArrow=classic;html=1;rounded=0;exitX=1;exitY=0.5;exitDx=0;exitDy=0;entryX=0;entryY=0.5;entryDx=0;entryDy=0;" edge="1" parent="1" source="FxkmAxEzRvK7W1a0_CuK-10" target="FxkmAxEzRvK7W1a0_CuK-80">
          <mxGeometry width="50" height="50" relative="1" as="geometry">
            <mxPoint x="560" y="-550" as="sourcePoint" />
            <mxPoint x="610" y="-600" as="targetPoint" />
          </mxGeometry>
        </mxCell>
        <mxCell id="FxkmAxEzRvK7W1a0_CuK-90" value="" style="ellipse;whiteSpace=wrap;html=1;aspect=fixed;" vertex="1" parent="1">
          <mxGeometry x="175" y="-314" width="20" height="20" as="geometry" />
        </mxCell>
        <mxCell id="FxkmAxEzRvK7W1a0_CuK-91" value="" style="ellipse;whiteSpace=wrap;html=1;aspect=fixed;fillColor=#000000;" vertex="1" parent="1">
          <mxGeometry x="180" y="-309" width="10" height="10" as="geometry" />
        </mxCell>
        <mxCell id="FxkmAxEzRvK7W1a0_CuK-92" value="" style="endArrow=classic;html=1;rounded=0;exitX=0.5;exitY=1;exitDx=0;exitDy=0;entryX=0.5;entryY=0;entryDx=0;entryDy=0;" edge="1" parent="1" target="FxkmAxEzRvK7W1a0_CuK-90">
          <mxGeometry width="50" height="50" relative="1" as="geometry">
            <mxPoint x="185" y="-339" as="sourcePoint" />
            <mxPoint x="500" y="-619" as="targetPoint" />
          </mxGeometry>
        </mxCell>
      </root>
    </mxGraphModel>
  </diagram>
</mxfile>
